<?xml version="1.0" encoding="utf-8"?>
<!-- Generator: Adobe Illustrator 16.0.0, SVG Export Plug-In . SVG Version: 6.00 Build 0)  -->
<!DOCTYPE svg PUBLIC "-//W3C//DTD SVG 1.1//EN" "http://www.w3.org/Graphics/SVG/1.1/DTD/svg11.dtd" [
	<!ENTITY ns_flows "http://ns.adobe.com/Flows/1.0/">
	<!ENTITY ns_extend "http://ns.adobe.com/Extensibility/1.0/">
	<!ENTITY ns_ai "http://ns.adobe.com/AdobeIllustrator/10.0/">
	<!ENTITY ns_graphs "http://ns.adobe.com/Graphs/1.0/">
]>
<svg version="1.1" id="Layer_1" xmlns:x="&ns_extend;" xmlns:i="&ns_ai;" xmlns:graph="&ns_graphs;"
	 xmlns="http://www.w3.org/2000/svg" xmlns:xlink="http://www.w3.org/1999/xlink" xmlns:a="http://ns.adobe.com/AdobeSVGViewerExtensions/3.0/"
	 x="0px" y="0px" width="864px" height="864px" viewBox="0 0 864 864" enable-background="new 0 0 864 864" xml:space="preserve">
<g>
	<path fill-rule="evenodd" clip-rule="evenodd" d="M430.115,675.725c8.205-9.331,16.09-17.295,22.745-26.18
		c5.51-7.358,7.16-8.338,14.166-2.36c4.422,3.773,9.293,7.356,12.646,11.979c8.611,11.867,20.519,17.112,34.237,20.685
		c22.192,5.777,43.918,13.36,66.132,19.044c13.461,3.444,24.163,9.782,35.023,18.628c13.316,10.844,29.799,17.805,44.937,26.401
		c3.156,1.792,6.419,3.396,9.14,6.729c-14.974,1.068-29.934,2.439-44.926,3.114c-13.633,0.614-27.313,0.149-40.947,0.749
		c-14.514,0.64-28.999,2.869-43.495,2.853c-108.404-0.127-216.809-0.641-325.213-1.029c-5.489-0.019-10.978-0.002-18.447-0.002
		c15.505-20.875,43.133-27.65,50.674-53.175c2.631,0.205,4.657,0.242,6.644,0.539c11.497,1.718,19.668-2.542,25.101-12.944
		c3.448-6.601,7.779-12.74,12.189-19.853c4.892,4.669,8.623,8.288,12.417,11.839c10.467,9.795,21.658,11.837,34.084,4.606
		c7.708-4.485,14.487-10.662,21.37-16.451c10.244-8.615,20.063-17.741,30.438-26.189c1.791-1.458,6.318-1.887,8.072-0.649
		c6.6,4.652,12.818,9.932,18.705,15.479C420.225,663.7,423.917,668.636,430.115,675.725z"/>
	<path fill-rule="evenodd" clip-rule="evenodd" d="M488.277,622.047c-47.127-13.973-93.593-12.515-140.927-0.336
		c0.43-5.704,0.89-10.448,1.129-15.203c1.541-30.53,3.147-61.059,4.439-91.599c0.234-5.526,2.346-8.305,7.586-9.846
		c39.436-11.599,78.632-11.13,117.428,2.518c2.24,0.787,4.026,5.836,4.22,9.011c1.749,28.769,3.064,57.563,4.585,86.346
		C487.058,608.972,487.7,614.988,488.277,622.047z"/>
	<path fill-rule="evenodd" clip-rule="evenodd" d="M475.014,446.698c-38.533-12.019-75.675-10.859-114.174-0.015
		c0.652-12.403,1.197-23.851,1.867-35.291c0.986-16.841,2.281-33.668,2.966-50.519c0.211-5.19,2.16-7.321,6.92-9.186
		c23.507-9.21,47.333-7.181,71.316-2.992c1.432,0.25,2.85,0.598,4.288,0.79c22.141,2.964,21.859,2.972,22.814,25.677
		C472,398.663,473.613,422.136,475.014,446.698z"/>
	<path fill-rule="evenodd" clip-rule="evenodd" d="M370.727,320.051c1.02-16.383,1.932-31.136,2.857-45.888
		c0.364-5.811,0.889-11.616,1.106-17.432c0.482-12.872,0.399-12.998,12.57-15.171c24.345-4.347,48.523-5.063,72.49,3.993
		c1.359,24.563,2.721,49.129,4.188,75.625C432.752,308.492,402.577,313.605,370.727,320.051z"/>
	<path fill-rule="evenodd" clip-rule="evenodd" d="M457.023,171.331c-28.7-12.738-56.975-12.196-84.8,2.357
		c-0.488-0.87-0.978-1.739-1.467-2.609c14.884-18.642,29.768-37.282,45.454-56.928c14.225,18.453,27.973,36.291,41.723,54.128
		C457.631,169.297,457.327,170.314,457.023,171.331z"/>
	<path fill-rule="evenodd" clip-rule="evenodd" d="M482.29,240.425c-34.421-19.551-70.188-22.941-107.704-9.405
		c-5.128,1.85-10.963,1.739-18.692,2.857c4.515-12.539,12.76-17.376,21.854-19.683c17.777-4.51,35.928-8.148,54.391-5.16
		c12.556,2.033,25.36,4.055,37.236,8.342C481.617,221.797,484.729,229.764,482.29,240.425z"/>
	<path fill-rule="evenodd" clip-rule="evenodd" d="M427.972,484.716c-7.034,0-13.061,0-19.875,0c0-11.534,0-22.921,0-34.953
		c6.489,0,12.931,0,19.875,0C427.972,461.408,427.972,472.571,427.972,484.716z"/>
</g>
</svg>
